<svg version="1.1" xmlns="http://www.w3.org/2000/svg" xmlns:xlink="http://www.w3.org/1999/xlink" width="111.15106" height="87.18956" viewBox="0,0,111.15106,87.18956"><g transform="translate(-184.42447,-136.8)"><g data-paper-data="{&quot;isPaintingLayer&quot;:true}" fill-rule="nonzero" stroke="#000000" stroke-width="2" stroke-linejoin="miter" stroke-miterlimit="10" stroke-dasharray="" stroke-dashoffset="0" style="mix-blend-mode: normal"><g><g fill="#ffffff" stroke-linecap="butt"><path d="M185.575,195.55l-0.15,-56.2c0,0 0.5888,-1.425 1.2125,-1.425c0.54109,0 0.97135,-0.125 1.625,-0.125c11.93652,0 68.7209,0 77,0c1.95995,0 3.3125,2.75 3.3125,2.75l-0.375,55.25c0,0 -0.3102,1 -1.5625,1c-6.78045,0 -65.60894,0 -78.375,0c-0.48492,0 -0.90338,0 -1.25,0c-0.77187,0 -1.4375,-1.25 -1.4375,-1.25z"/><path d="M193.325,212.2v-16h24.6l-19.4,12.8z"/></g><g data-paper-data="{&quot;index&quot;:null}" fill="#ffffff" stroke-linecap="butt"><path d="M292.9875,206.8c-0.34662,0 -0.76508,0 -1.25,0c-12.76605,0 -71.59456,0 -78.375,0c-1.2523,0 -1.5625,-1 -1.5625,-1l-0.375,-55.25c0,0 1.35255,-2.75 3.3125,-2.75c8.2791,0 65.06348,0 77,0c0.65364,0 1.0839,0.125 1.625,0.125c0.6237,0 1.2125,1.425 1.2125,1.425l-0.15,56.2c0,0 -0.66563,1.25 -1.4375,1.25z"/><path d="M281.475,219l-19.4,-12.8h24.6v16z"/></g><path d="M222.875,159.33333h55.33333" fill="none" stroke-linecap="round"/><path d="M222.875,172l54.33333,-0.33333" fill="none" stroke-linecap="round"/><path d="M223.875,183.66667h53.66667" fill="none" stroke-linecap="round"/><path d="M248.20833,192.33333h-23.33333" fill="none" stroke-linecap="round"/></g></g></g></svg>